<svg version="1.1" id="Layer_1" xmlns="http://www.w3.org/2000/svg" xmlns:xlink="http://www.w3.org/1999/xlink" x="0px" y="0px"
	 width="100%" viewBox="0 0 1024 1024" enable-background="new 0 0 1024 1024" xml:space="preserve">
<path fill="#000000" opacity="1.000000" stroke="none" 
	d="
M762.869202,739.236206 
	C782.014648,783.555969 796.634338,828.927124 805.881104,875.938477 
	C808.272522,888.096619 810.946777,900.326355 809.525818,912.977966 
	C808.091980,925.743896 801.616272,935.481812 791.888550,943.150696 
	C788.545532,945.786255 788.065247,948.310425 788.191589,952.272156 
	C789.448059,991.673950 753.642944,1014.501953 717.398560,1000.090820 
	C712.313538,998.068970 708.499695,998.094604 703.427246,1000.030273 
	C685.473816,1006.881592 666.568298,1010.256531 647.663757,1013.176636 
	C604.907898,1019.781189 561.824585,1020.866211 518.653320,1019.930847 
	C493.671234,1019.389648 468.675293,1019.210266 443.709991,1018.240234 
	C409.980164,1016.929688 376.193268,1015.745239 343.211639,1007.364990 
	C333.210358,1004.823853 323.128754,1002.448975 314.005249,997.406006 
	C311.462860,996.000732 309.627228,997.045166 307.496643,998.003845 
	C286.218475,1007.578369 262.555389,1004.303162 246.978409,989.337463 
	C236.642410,979.407104 231.056793,967.211304 231.751816,952.702637 
	C231.996552,947.593994 230.586838,944.282043 226.473099,940.905151 
	C211.648972,928.736511 208.861481,912.123413 211.246216,894.278809 
	C217.962494,844.021912 233.310730,796.060486 250.904755,748.771240 
	C262.182343,718.459290 275.042419,688.834534 292.776611,661.588745 
	C297.145477,654.876709 301.937561,648.471375 307.192749,642.438538 
	C309.008820,640.353699 309.366333,638.626709 307.845093,636.253723 
	C305.249817,632.205322 304.273834,627.689087 304.663879,622.886353 
	C304.858551,620.489258 304.197357,618.778748 301.603241,617.921265 
	C289.114044,613.792908 277.843597,607.503052 268.066376,598.631409 
	C267.726562,598.323059 267.185150,598.236938 266.775879,598.063354 
	C265.143097,598.868347 264.999542,600.496399 264.452545,601.829529 
	C259.635406,613.569885 250.252838,619.696777 237.537140,619.350769 
	C229.992355,619.145447 227.408264,615.198547 230.318115,608.127258 
	C231.826767,604.461121 233.927856,601.115417 233.723099,596.811401 
	C233.365219,589.288086 232.454025,588.130066 225.369553,585.137207 
	C196.904984,573.111877 178.815872,552.571228 173.859848,521.487366 
	C173.521133,519.362915 173.727325,517.157166 173.516724,515.005188 
	C173.323868,513.034729 172.909637,511.085907 172.429245,508.115051 
	C167.841690,521.396790 166.314835,534.074585 167.696655,547.129333 
	C167.941040,549.438110 168.310745,551.754395 168.299255,554.065613 
	C168.265701,560.817322 163.475464,563.543884 157.472015,560.236023 
	C154.200470,558.433472 151.750351,555.665955 149.597763,552.673889 
	C136.737442,534.798035 132.912674,514.644592 134.337891,493.059296 
	C136.192886,464.964569 148.393433,441.008789 163.722778,418.243317 
	C164.727982,416.750519 166.126663,415.453125 166.348099,413.176880 
	C164.062775,413.013672 162.716125,414.564270 161.187180,415.665771 
	C150.983154,423.016968 140.527039,429.786255 127.464806,430.776917 
	C123.664513,431.065155 119.968002,431.048187 116.259300,428.535370 
	C145.218323,421.944550 164.504471,402.166626 184.175552,382.619751 
	C196.377289,370.494995 203.630081,355.772369 209.847549,340.249542 
	C215.543274,326.029297 220.829910,311.633026 228.378571,298.234436 
	C231.413971,292.846680 228.731766,287.392731 228.274643,282.113281 
	C226.017380,256.043549 224.757828,230.010544 226.457611,203.832047 
	C227.600128,186.235931 229.175888,168.715836 231.658096,151.265381 
	C234.957230,128.071701 238.860977,104.990211 244.983841,82.353104 
	C249.555466,65.451157 255.590378,62.203625 271.933105,68.234123 
	C317.788147,85.154724 360.971008,107.279167 400.941437,135.493942 
	C404.377777,137.919617 407.280365,138.495117 411.444275,137.287277 
	C438.680939,129.386612 466.408966,124.589867 494.852234,123.494362 
	C524.687866,122.345238 553.967102,125.295258 582.785767,132.875076 
	C586.865601,133.948166 589.637146,133.063965 592.712158,130.430389 
	C621.971619,105.371292 652.173584,81.559044 685.230957,61.601582 
	C691.936707,57.553185 698.805969,53.775578 706.108948,50.904621 
	C714.798645,47.488491 719.626831,49.388866 723.325500,58.005684 
	C731.681396,77.472672 737.272827,97.875160 743.072327,118.183258 
	C752.391541,150.816238 759.666443,183.929138 765.031250,217.434799 
	C767.475769,232.701675 768.288513,248.168091 769.295410,263.593079 
	C769.425049,265.578247 769.312622,267.518585 770.560852,269.324280 
	C784.013062,288.784393 793.976440,310.061859 801.937561,332.201721 
	C810.254456,355.331177 828.534241,367.030273 849.582886,375.865997 
	C855.460999,378.333496 861.905579,378.499817 868.246338,378.683594 
	C869.166809,378.710236 870.265198,378.400452 871.277893,380.393188 
	C852.598694,383.779510 837.125000,376.634247 822.508850,367.063995 
	C820.229370,369.846222 822.192505,371.401611 823.055725,372.968109 
	C829.911438,385.410583 838.585022,396.622986 846.906006,408.079590 
	C858.277771,423.736603 869.604065,439.484985 874.648865,458.577850 
	C879.431519,476.678284 878.964478,494.760986 873.276733,512.632812 
	C872.475098,515.151550 871.294189,517.581543 870.032166,519.913757 
	C868.509949,522.726807 865.867065,523.645142 862.809082,523.257324 
	C859.777832,522.872742 857.342712,521.497070 856.681091,518.266418 
	C855.848999,514.203491 855.295593,510.084076 854.500488,506.012726 
	C852.961548,498.132843 850.492126,490.567139 845.986511,482.444214 
	C847.087280,491.828644 847.695740,500.145355 847.327881,508.487915 
	C846.476868,527.791382 841.032288,545.458130 828.727417,560.689270 
	C826.191162,563.828613 823.288025,566.569519 819.960876,568.815247 
	C816.986816,570.822754 813.635193,571.252502 810.537048,569.360657 
	C807.312500,567.391541 807.584412,564.290100 808.320801,560.922546 
	C810.123352,552.679016 812.262146,544.470703 812.266296,535.806030 
	C808.154724,541.989929 804.884705,548.647400 800.424744,554.565735 
	C791.985535,565.764282 781.697571,574.851074 769.717529,582.065552 
	C763.470215,585.827759 760.930481,595.375183 764.509583,601.872620 
	C765.151428,603.037781 765.993591,604.104187 766.539795,605.308472 
	C769.097046,610.947388 766.958923,615.207581 760.937622,616.606384 
	C749.398254,619.287109 737.040833,608.942627 735.685852,595.418823 
	C735.470825,593.273254 735.460754,591.109924 734.422852,589.153687 
	C732.583496,588.630127 731.603516,590.057129 730.447937,590.852112 
	C723.559875,595.590881 716.390381,599.806702 708.458069,602.540222 
	C704.996582,603.733032 703.954163,605.368469 705.006470,609.235596 
	C707.035706,616.692566 707.386902,624.361023 704.735962,631.838928 
	C703.726685,634.686096 704.341125,636.955933 706.179749,639.228699 
	C730.525696,669.325012 747.391724,703.670044 762.869202,739.236206 
M523.480591,679.023010 
	C520.396057,681.295288 517.333618,683.598328 514.221191,685.831543 
	C510.749207,688.322754 507.423615,688.629211 503.741058,685.827209 
	C485.450958,671.910767 466.672699,658.611206 449.871704,642.833740 
	C447.633057,640.731445 445.219177,639.077881 442.146362,638.527344 
	C436.262543,637.472961 430.351990,636.544556 424.502991,635.322449 
	C396.519806,629.475769 369.366333,621.267517 344.405334,606.886536 
	C331.688934,599.560181 331.673706,599.577576 322.671844,611.509277 
	C321.971100,612.438110 321.298645,613.403015 320.736237,614.419312 
	C316.099884,622.797302 317.529327,630.059082 324.918335,636.158386 
	C329.347626,639.814514 334.479797,642.239014 339.679504,644.468201 
	C377.485229,660.676636 416.991516,671.054932 457.297241,678.708740 
	C467.244110,680.597595 477.385406,681.443237 487.151642,684.311218 
	C489.666748,685.049805 491.520691,686.339111 491.100037,689.174316 
	C490.680878,691.999329 488.852448,693.521118 485.866364,693.447510 
	C483.201080,693.381714 480.485596,693.672485 477.879456,693.257874 
	C473.215332,692.515869 471.295441,694.547668 471.429565,698.929382 
	C471.715424,708.268250 470.793915,717.554871 470.311646,726.858521 
	C469.433136,743.807190 468.144379,760.740967 467.640839,777.699219 
	C467.461761,783.731323 464.950653,789.489990 465.701660,795.379822 
	C466.319183,800.223022 466.347534,805.006165 466.251282,809.808228 
	C466.179321,813.399048 464.946716,816.898560 461.757690,818.873352 
	C455.348175,822.842346 448.154968,822.553833 441.557312,820.207214 
	C435.344910,817.997620 434.935791,811.764038 434.606293,805.912659 
	C434.313293,800.709229 436.689362,795.646912 435.554474,790.536133 
	C434.482483,785.708740 434.693024,780.938965 434.952667,776.127197 
	C435.830902,759.850952 436.698822,743.573608 437.703949,727.304932 
	C438.390594,716.191467 438.926025,705.045776 440.282593,694.007080 
	C440.868805,689.237244 439.753479,687.339539 435.193909,686.473389 
	C417.219696,683.059204 399.515076,678.474609 382.018341,673.174744 
	C363.067535,667.434326 344.078400,661.680786 326.431274,652.450256 
	C318.439819,648.270325 318.538239,648.081482 312.994171,655.243835 
	C312.790222,655.507324 312.602173,655.783142 312.399139,656.047302 
	C294.258453,679.649475 281.662109,706.290771 270.324524,733.559326 
	C255.223969,769.878052 243.040070,807.192200 233.352158,845.313538 
	C228.318939,865.118958 223.128967,884.879089 223.205551,905.585022 
	C223.239990,914.892822 226.400833,922.815002 233.277267,928.626099 
	C249.967789,942.730835 269.894714,949.194092 291.312958,951.680115 
	C294.576233,952.058899 295.613678,950.719604 295.768311,947.483337 
	C296.259949,937.192932 296.860016,926.897827 297.814240,916.641357 
	C300.214020,890.846680 303.044250,865.104004 306.507385,839.419006 
	C310.569641,809.290405 315.649628,779.341919 321.518799,749.534546 
	C323.888306,737.500671 325.675232,725.795959 321.797882,713.741699 
	C319.769623,707.436096 318.760162,700.806396 317.203125,694.344116 
	C316.477264,691.331421 316.353271,688.448303 319.793091,687.256775 
	C322.914032,686.175720 324.894592,688.220398 326.043549,690.843384 
	C331.152008,702.505676 334.865936,714.615417 335.263367,727.390259 
	C335.768738,743.635193 330.948639,759.261475 328.769867,775.200623 
	C326.342072,792.961487 322.886047,810.581299 320.432373,828.339172 
	C317.136658,852.191040 313.996704,876.061218 312.004028,900.085449 
	C310.201660,921.815125 308.414368,943.529968 308.116516,965.335632 
	C307.943604,977.995789 311.447754,983.013489 323.220245,987.711121 
	C338.141113,993.665100 353.771667,997.055908 369.551208,999.451111 
	C399.684357,1004.024963 430.116821,1005.771545 460.529480,1006.426697 
	C490.489929,1007.072021 520.448120,1008.137817 550.463867,1007.304932 
	C580.942810,1006.459106 611.303650,1004.916992 641.488770,1000.635010 
	C660.262207,997.971863 678.824463,994.200623 696.953247,988.549438 
	C708.522217,984.943115 712.694824,979.394287 712.770386,967.382019 
	C712.820618,959.395508 712.396912,951.421570 711.943176,943.433594 
	C710.226318,913.206482 706.271484,883.257141 701.674011,853.372620 
	C696.497131,819.721619 690.464905,786.231567 682.666870,753.075500 
	C680.842590,745.319092 677.426758,737.485107 678.130737,729.696838 
	C679.322632,716.510071 681.857666,703.364136 686.823669,690.898987 
	C687.561584,689.046936 688.291138,687.175537 689.881165,685.813049 
	C691.127869,684.744934 692.535950,684.396729 694.065552,684.902344 
	C695.723206,685.450195 696.283875,686.834534 696.280273,688.440491 
	C696.276978,689.934326 696.312073,691.462463 696.026428,692.915833 
	C694.265503,701.875610 692.233459,710.786499 690.679932,719.780823 
	C689.929138,724.128113 687.908569,728.526184 689.187195,732.964417 
	C696.415283,758.053955 701.840149,783.532410 706.518799,809.207092 
	C715.068176,856.122925 722.359131,903.193542 725.249451,950.847107 
	C725.450623,954.164673 726.939941,954.656921 729.722107,954.413086 
	C749.376526,952.690674 766.746765,945.177734 782.353394,933.431702 
	C790.485413,927.311279 795.972900,919.457642 797.003357,908.890259 
	C798.153870,897.091370 795.702637,885.672424 793.226501,874.372314 
	C779.471924,811.601562 757.731995,751.697876 727.624451,694.894897 
	C718.955811,678.539978 709.177002,662.860046 697.478210,648.444092 
	C695.515320,646.025330 693.783813,644.523315 690.426208,646.640686 
	C672.527527,657.928162 652.741638,664.924988 632.794739,671.493591 
	C615.724304,677.114990 598.576843,682.486572 581.075134,686.645569 
	C578.550232,687.245605 576.678528,687.966797 576.798584,691.523682 
	C577.630188,716.148804 578.924255,740.756348 579.669739,765.387329 
	C579.981567,775.689392 578.328491,786.251587 581.672546,796.439087 
	C583.044312,800.617981 582.547791,805.071289 582.151794,809.351013 
	C581.764771,813.534180 580.447815,817.528076 576.332764,819.830811 
	C564.150513,826.647766 550.789612,819.039795 550.657166,805.201111 
	C550.614136,800.705811 551.714233,795.769897 550.234863,791.802429 
	C546.503357,781.794739 547.065918,771.529480 546.686829,761.288818 
	C545.929199,740.824036 545.260620,720.355469 544.685059,699.884827 
	C544.566162,695.655090 542.473572,694.721985 538.866943,695.492920 
	C536.426331,696.014526 534.020264,696.743958 531.558472,697.109131 
	C528.281250,697.595215 525.989990,696.074219 525.148193,692.898010 
	C524.299377,689.695435 526.156494,687.800049 528.951233,686.859070 
	C531.624756,685.958801 534.378052,685.252563 537.139282,684.661987 
	C578.861206,675.739197 619.864807,664.434387 659.232788,647.746704 
	C667.818481,644.107361 676.381836,640.334045 684.034241,634.902771 
	C694.320007,627.602417 696.184082,619.083862 690.087585,608.045166 
	C687.326172,603.045105 683.377686,598.957092 679.807617,594.561890 
	C677.298157,591.472290 675.354187,591.681213 672.358459,593.793823 
	C645.336426,612.850281 615.294189,625.178589 583.415161,633.337646 
	C580.634827,634.049255 578.123352,635.096985 575.881592,637.004639 
	C559.006226,651.365173 541.701477,665.194336 523.480591,679.023010 
M568.678528,301.093842 
	C555.042664,322.996582 539.319153,343.167877 519.289185,359.644806 
	C510.472382,366.897614 503.638062,366.227478 495.781952,357.737457 
	C492.892517,354.614899 490.428802,351.098358 487.473785,347.388519 
	C480.805939,354.045593 474.458191,360.393616 467.146698,365.656036 
	C455.630920,373.944489 447.997803,373.429382 438.256866,362.993408 
	C429.604340,353.723511 423.762939,342.697662 419.732971,330.740875 
	C412.696838,309.865143 409.909210,288.367676 410.629333,266.376373 
	C410.685608,264.658051 411.383789,262.716766 409.834625,261.228271 
	C408.207855,261.269287 408.011719,262.653870 407.534058,263.604584 
	C403.490845,271.652435 398.852753,279.356415 394.153137,287.027405 
	C369.354614,327.504791 338.419403,362.090912 297.740234,387.281006 
	C295.380585,388.742218 294.147308,390.637512 293.672668,393.191132 
	C292.061920,401.857025 290.863220,410.591278 290.357758,419.383026 
	C288.683258,448.506714 291.092163,477.198334 299.699371,505.228027 
	C301.326172,510.525635 298.628174,514.759705 293.131195,515.180847 
	C288.238434,515.555786 288.278534,517.418152 289.664642,521.289551 
	C304.815674,563.605713 334.941864,590.878906 375.646057,607.880310 
	C407.522644,621.194519 441.052948,626.794434 475.138977,629.468140 
	C501.388702,631.527222 527.665100,631.332764 553.772766,626.814941 
	C593.808289,619.886963 631.250977,606.656799 664.665955,582.917358 
	C691.393677,563.928772 709.244324,538.933289 717.773438,507.266998 
	C718.473267,504.668488 719.097717,502.659790 715.520874,501.480011 
	C709.537048,499.506287 707.815735,496.281586 708.852600,490.021820 
	C709.476318,486.255432 710.266602,482.510284 711.138306,478.792236 
	C718.279602,448.333527 719.525391,417.600677 715.600952,386.604095 
	C714.976440,381.671692 713.055054,378.364594 708.151550,375.972870 
	C681.410889,362.930054 658.453674,345.107910 640.481567,321.126221 
	C623.293396,298.190674 611.622070,272.545044 602.674377,245.513016 
	C601.959412,243.352844 601.736389,240.929184 599.074341,239.005600 
	C590.414062,260.318176 580.953064,281.003967 568.678528,301.093842 
M408.931580,231.503738 
	C411.977661,224.656403 415.071655,217.829834 418.050262,210.953278 
	C419.617645,207.334641 422.212402,205.860809 426.026794,206.768417 
	C429.594543,207.617355 431.186707,210.033157 431.360901,213.652695 
	C431.501007,216.564468 430.660095,219.260117 429.917145,221.977402 
	C422.001923,250.926773 421.449982,280.124756 427.458252,309.414368 
	C430.620911,324.832123 435.377960,339.741699 446.000122,351.977142 
	C451.635834,358.468750 454.219299,358.646698 461.001007,353.362305 
	C468.906494,347.202271 476.170288,340.382172 482.803101,332.849854 
	C487.392609,327.638000 490.797485,328.031860 494.652557,333.872803 
	C497.585785,338.317078 500.455231,342.804169 503.302856,347.303955 
	C505.715851,351.116882 508.358215,351.422424 511.900452,348.530975 
	C519.031921,342.709778 525.463989,336.191772 531.481445,329.278412 
	C556.760559,300.235291 574.595642,266.936798 587.477478,230.827393 
	C589.884705,224.079697 592.003174,217.256699 593.697510,210.289642 
	C594.430664,207.275162 595.084351,203.950272 599.304565,203.701294 
	C603.867310,203.432098 605.880859,206.181000 607.073792,209.997162 
	C607.471130,211.268188 607.858459,212.542862 608.221375,213.824066 
	C610.261719,221.027176 612.157715,228.274353 614.351990,235.430130 
	C622.492310,261.976318 632.737305,287.487793 649.318115,310.160828 
	C670.050781,338.511292 697.349915,357.802368 729.865845,370.215363 
	C732.376648,371.173920 734.958496,372.022400 736.263062,374.640045 
	C737.848999,377.822327 737.496582,381.289001 733.917236,381.933838 
	C727.527893,383.084808 727.966003,386.867798 728.716309,391.512634 
	C729.244690,394.783966 729.246582,398.138062 729.537354,401.450470 
	C731.056580,418.753815 730.679077,436.024811 728.779297,453.280304 
	C727.684082,463.228180 725.424744,472.941803 723.094238,482.646393 
	C722.793274,483.899719 722.037476,485.303619 723.530884,486.269135 
	C724.865601,487.132080 726.151245,486.476990 727.208374,485.627716 
	C730.061829,483.335327 733.036804,481.149994 735.630249,478.585144 
	C755.756836,458.680206 763.286255,433.656006 764.658203,406.228149 
	C766.266602,374.071564 760.476562,342.927246 751.563782,312.221405 
	C741.247986,276.682007 724.792419,244.439728 699.935669,216.809845 
	C653.972412,165.718842 594.621460,143.073227 527.840149,137.599274 
	C501.968536,135.478607 476.007324,137.180191 450.282074,142.181305 
	C391.301819,153.647385 339.627441,177.779297 300.676025,225.266327 
	C279.456818,251.135391 262.156006,278.852997 252.622437,311.407654 
	C240.633499,352.346710 236.696487,393.484406 244.258850,435.623474 
	C248.557480,459.576355 258.723236,480.119049 277.481415,496.046234 
	C279.498596,497.759033 281.527222,499.266479 284.534180,499.892395 
	C284.411987,498.773956 284.409485,498.126801 284.264343,497.513336 
	C279.649475,478.004059 277.632538,458.163055 277.064087,438.179840 
	C276.737335,426.693817 277.623138,415.240936 279.334015,403.850220 
	C279.878632,400.224182 281.862549,395.637421 275.444458,394.621094 
	C274.066528,394.402893 273.944427,392.646729 273.686371,391.298340 
	C272.548279,385.351593 276.542206,383.054993 280.859924,380.829224 
	C297.543610,372.228668 312.826599,361.583038 326.550690,348.788086 
	C362.064972,315.678101 387.694550,275.578125 408.931580,231.503738 
M160.591034,504.272583 
	C166.136276,490.179688 191.562897,452.472778 197.458572,450.193512 
	C198.537155,454.537720 196.081360,457.972412 194.711349,461.429230 
	C188.708008,476.576904 184.809204,492.012329 185.204620,508.522095 
	C185.901306,537.610657 203.958969,563.953796 231.398758,573.633789 
	C240.222946,576.746826 244.049332,582.397461 245.568665,590.975525 
	C246.123795,594.109619 245.204346,597.643616 247.471634,600.652405 
	C251.083466,599.500183 252.548035,597.079529 252.838318,593.580688 
	C253.338684,587.549500 252.599976,581.619202 251.792480,575.669861 
	C251.419708,572.923218 251.623978,570.102051 254.862930,569.098389 
	C257.731689,568.209412 258.962524,570.549805 260.343292,572.435547 
	C262.901154,575.928711 265.345154,579.519836 268.105927,582.846558 
	C272.618500,588.284241 277.788269,593.873779 284.541077,595.345520 
	C290.460236,596.635620 296.414429,597.774658 302.350037,599.224792 
	C307.586884,600.504150 313.249481,597.981262 316.046204,593.756104 
	C318.451355,590.122498 315.661682,585.738525 312.491394,582.454102 
	C293.540192,562.820557 281.133240,539.618042 274.981842,513.061707 
	C274.414734,510.613586 273.094727,508.933502 271.085785,507.529633 
	C263.802551,502.440125 257.399689,496.407867 251.934921,489.382812 
	C251.059753,488.257812 250.455307,486.674561 248.617508,486.705292 
	C247.281494,487.353516 246.763397,488.577942 246.311249,489.844208 
	C241.307816,503.856995 237.795380,518.185547 237.311020,533.132324 
	C237.035797,541.625854 237.302063,550.103699 238.240021,558.560181 
	C238.424942,560.227356 238.236237,562.086792 236.270721,562.705933 
	C234.404068,563.294006 233.053894,562.051697 232.049896,560.699646 
	C231.065765,559.374268 230.142120,557.928223 229.554916,556.395996 
	C225.468384,545.733032 224.496994,534.554382 226.225479,523.468628 
	C228.718063,507.482178 233.817398,492.131744 240.233414,477.269531 
	C241.233322,474.953339 241.416870,472.948975 240.575821,470.602631 
	C231.893173,446.380188 228.388428,421.209534 228.041779,395.657928 
	C227.686127,369.443848 231.073120,343.586700 238.150406,318.279938 
	C240.002625,311.656860 241.929352,305.054626 244.220749,297.049133 
	C239.810959,299.986694 238.733841,303.406830 237.445892,306.489105 
	C230.770889,322.463287 224.486435,338.603516 217.641327,354.503113 
	C207.300461,378.522522 191.909012,399.571350 177.534439,421.188354 
	C166.802841,437.326965 156.748291,453.750549 151.148575,472.511902 
	C145.969604,489.863525 145.923340,507.241791 150.747650,524.643372 
	C151.267853,526.519775 151.434967,528.895264 154.197556,529.885559 
	C155.820114,521.273499 157.252731,512.928955 160.591034,504.272583 
M770.290039,457.399231 
	C771.536316,464.594208 772.861389,471.776642 774.011353,478.986969 
	C776.023376,491.601685 775.680786,504.150085 773.134155,516.698303 
	C769.524963,534.482117 762.967041,551.115845 754.314880,566.996033 
	C752.144836,570.979126 750.058533,575.030396 749.523376,580.617676 
	C755.366150,576.190125 760.826965,572.809875 766.282349,569.412415 
	C785.145386,557.665344 797.477661,540.715759 804.039795,519.615173 
	C806.921082,510.350586 807.349915,500.660461 807.688965,491.009644 
	C807.744629,489.426544 807.308411,487.450226 809.591919,486.951782 
	C811.457336,486.544617 812.841309,487.529938 813.791992,489.018097 
	C814.501099,490.128143 815.112549,491.337677 815.547424,492.579926 
	C820.344177,506.281677 823.965088,520.230835 824.359009,534.856567 
	C824.409851,536.744568 823.796143,538.840698 825.560181,540.398071 
	C825.905212,540.186157 826.286743,540.084717 826.422363,539.844543 
	C826.912048,538.977173 827.313232,538.060242 827.758179,537.167053 
	C835.441406,521.743286 836.065552,505.482086 833.165222,488.916840 
	C829.319092,466.949371 820.793030,446.492218 812.395020,426.007019 
	C811.570679,423.996277 809.829895,422.024628 812.252686,418.477936 
	C829.153931,440.590912 849.305237,459.364746 862.256165,483.993500 
	C864.700745,477.468384 863.195312,471.405029 862.031372,465.492859 
	C858.801941,449.089386 850.362610,435.062378 840.488464,421.976166 
	C818.916199,393.386444 800.249146,363.156677 787.203491,329.695923 
	C777.696350,305.311035 765.406067,282.574280 748.693237,262.342896 
	C747.631531,261.057648 747.074829,258.922363 744.575867,259.329285 
	C744.498535,259.852631 744.292969,260.353699 744.388794,260.788269 
	C744.566040,261.592010 744.855652,262.387268 745.209229,263.133545 
	C757.744690,289.594452 766.327271,317.296021 771.782532,346.049438 
	C778.210266,379.928558 780.284119,413.677124 770.378967,447.303162 
	C769.484375,450.340057 768.695618,453.445068 770.290039,457.399231 
M311.638641,147.888214 
	C316.521545,156.214813 321.441193,164.520172 326.269318,172.878418 
	C328.219238,176.254059 330.345184,177.178757 333.839020,174.666565 
	C348.361053,164.224701 364.131744,155.981613 380.417389,148.678772 
	C383.022247,147.510681 385.833740,146.377792 385.935699,142.959061 
	C386.024811,139.970032 383.037079,139.573120 381.243805,138.397110 
	C357.812195,123.030739 333.081909,109.972504 307.872772,97.834793 
	C294.835876,91.557770 281.624664,85.572769 267.797882,81.167503 
	C262.638123,79.523598 259.605042,81.351585 257.949005,86.499031 
	C257.541229,87.766502 257.131927,89.036095 256.795929,90.323654 
	C248.667679,121.472153 244.173981,153.244720 241.504700,185.237656 
	C239.318161,211.444885 239.374359,237.762314 240.314072,264.056122 
	C240.379105,265.876007 240.153793,267.861115 242.195908,268.852234 
	C244.364624,269.904785 246.085648,268.626740 247.670120,267.435883 
	C248.854568,266.545685 249.908768,265.431152 250.850540,264.277405 
	C256.428131,257.444275 261.905853,250.528961 267.530365,243.735016 
	C269.271912,241.631409 269.325226,239.783752 268.099945,237.392090 
	C265.929749,233.155975 264.320679,228.492081 266.661316,223.986298 
	C269.238312,219.025482 268.530579,216.244751 263.416107,213.423477 
	C256.648499,209.690308 254.744034,201.705566 258.031616,194.747375 
	C260.124146,190.318497 263.835602,187.601181 268.085754,185.420303 
	C272.672058,183.066940 273.160522,180.989105 270.318848,176.748840 
	C267.351288,172.320709 264.360657,167.927246 262.605865,162.811172 
	C258.582581,151.081375 264.204559,142.120468 276.501892,140.768036 
	C278.978485,140.495682 281.501648,140.380249 283.909119,139.800842 
	C289.107635,138.549713 290.128296,135.836990 287.706909,131.149277 
	C283.516815,123.037369 278.315857,115.370010 276.400543,106.228546 
	C275.895233,103.816765 274.823883,100.964828 277.668060,99.495796 
	C280.894073,97.829536 281.968048,101.010239 283.305023,102.924873 
	C293.318115,117.264397 302.725647,131.990814 311.638641,147.888214 
M723.085266,174.429825 
	C732.277100,184.772095 731.206726,196.531830 720.344238,204.545074 
	C716.458862,207.411331 716.082947,209.812317 719.596680,212.959595 
	C727.538330,220.072906 735.111572,227.558014 742.487549,235.238647 
	C744.747498,237.591904 747.196106,238.724365 750.531128,238.408127 
	C751.064880,236.346451 753.024048,234.800232 752.695862,232.145721 
	C752.105957,227.375000 752.223267,222.502258 751.440430,217.772217 
	C743.363831,168.969986 731.883301,121.006943 715.669617,74.228485 
	C712.717529,65.711319 708.306580,64.057625 700.577393,68.673180 
	C669.666870,87.131615 640.009399,107.339600 613.021423,131.293259 
	C606.964722,136.668961 607.535278,139.804321 615.153625,142.711227 
	C628.683472,147.873749 642.217651,153.082962 654.660034,160.615524 
	C658.705627,163.064713 660.605164,161.740051 662.094971,157.816986 
	C667.651978,143.183472 674.134033,128.940216 680.539062,114.666908 
	C684.775635,105.226028 690.237793,96.457161 695.529968,87.597641 
	C696.503052,85.968643 697.647400,84.374107 699.854614,85.117714 
	C702.213623,85.912476 702.581970,88.039734 702.116333,90.064293 
	C701.448975,92.965836 700.508301,95.823814 699.453674,98.613174 
	C696.923767,105.304466 694.153809,111.906082 691.684143,118.618713 
	C689.831177,123.654976 691.547546,126.117317 696.956482,126.552773 
	C699.111145,126.726242 701.290039,126.589516 703.446655,126.748009 
	C714.995544,127.596764 720.939575,135.412186 718.997681,146.839447 
	C718.153320,151.808594 716.675354,156.591721 714.628296,161.106216 
	C712.880432,164.961182 714.300720,167.540421 716.849121,169.901596 
	C718.543213,171.471176 720.623596,172.623840 723.085266,174.429825 
M757.150146,525.812988 
	C761.142578,507.714935 761.771362,489.464447 760.606628,471.231537 
	C757.781799,470.772949 756.972656,472.129272 756.091797,473.323730 
	C750.315552,481.156830 743.508728,487.978210 735.768982,493.855469 
	C733.642822,495.469971 732.650940,497.428375 732.110046,500.062439 
	C727.885132,520.637085 720.791931,540.070312 708.589111,557.382080 
	C704.361389,563.379944 699.772949,569.066162 694.654846,574.361633 
	C691.903320,577.208496 689.062866,580.538696 692.465576,584.875305 
	C696.529724,590.054749 704.042725,591.711792 709.899841,588.613159 
	C714.018250,586.434265 718.231506,584.351257 722.062195,581.728577 
	C730.535461,575.927429 739.800354,570.766663 744.966492,561.419067 
	C750.959839,550.574829 754.680298,538.821533 757.150146,525.812988 
M312.281219,176.143646 
	C309.565918,171.364807 306.740417,166.644455 304.165405,161.791199 
	C301.426819,156.629715 296.960968,154.647141 291.470062,154.403809 
	C288.141815,154.256302 284.803162,154.200623 281.472900,154.273605 
	C275.814423,154.397614 274.148621,157.003723 276.729858,161.937729 
	C279.669739,167.557327 283.327179,172.714661 287.367371,177.621948 
	C291.970306,183.212769 291.201355,187.388474 284.943146,191.109268 
	C281.367371,193.235245 277.505646,194.896454 274.010437,197.137665 
	C269.837097,199.813690 270.173126,203.808365 274.655762,205.887085 
	C277.364319,207.143112 280.256012,208.007645 283.075226,209.020798 
	C288.284637,210.892929 288.795624,212.783554 285.497772,217.387268 
	C283.441650,220.257538 280.428467,222.526093 279.948242,226.564789 
	C282.532928,224.728226 284.771790,222.554276 286.626007,220.090805 
	C293.571960,210.862457 301.756439,202.798904 310.079163,194.866608 
	C318.559937,186.783707 318.599701,186.825424 312.281219,176.143646 
M707.623291,179.926086 
	C698.673706,176.950256 695.764709,171.119644 698.830688,162.156296 
	C699.474121,160.275299 700.311584,158.456238 701.130493,156.640579 
	C703.214844,152.018997 707.403687,146.354767 704.443604,142.464859 
	C701.323669,138.364822 694.613708,140.545456 689.311462,141.022705 
	C684.139587,141.488235 681.129150,143.980103 679.491272,148.732330 
	C677.435547,154.696808 675.442017,160.703415 672.953674,166.490616 
	C671.406250,170.089584 671.698608,172.430496 674.832214,175.046204 
	C683.508484,182.288467 691.816711,189.957047 699.532227,198.242294 
	C700.531067,199.314850 701.573730,200.476913 703.631409,200.344818 
	C704.848267,199.231491 705.303040,196.946915 707.681335,196.632843 
	C712.236084,196.031342 715.109558,193.088394 715.368408,188.745621 
	C715.637268,184.235245 712.468384,181.579102 707.623291,179.926086 
M245.429611,961.986267 
	C249.439148,975.437561 257.876373,984.726440 271.558502,988.369202 
	C280.880127,990.851074 290.321503,990.784119 299.730713,987.325317 
	C297.673096,981.749390 295.357361,977.245056 295.603729,972.065002 
	C295.847900,966.930847 293.259766,964.826172 288.232483,964.272156 
	C277.806610,963.123291 267.648438,960.558411 257.718719,957.175171 
	C253.519592,955.744507 249.400345,954.079468 245.263092,952.527771 
	C243.336960,955.796082 245.409286,958.452759 245.429611,961.986267 
M768.016235,977.485107 
	C772.722351,970.697876 776.156860,963.579224 774.461487,955.103516 
	C773.726990,954.937561 773.531433,954.822876 773.419128,954.877930 
	C759.408508,961.743042 745.032471,967.185425 729.039429,966.518860 
	C726.841064,966.427185 726.502319,968.000183 726.192139,969.824341 
	C725.300659,975.067505 724.443970,980.344727 721.914490,985.138550 
	C720.453796,987.906860 722.350159,988.749268 724.413757,989.291870 
	C740.893738,993.624878 755.762634,991.701721 768.016235,977.485107 
M481.270844,644.451721 
	C478.797058,644.645813 475.995422,643.249634 473.762909,645.963440 
	C474.156769,646.602295 474.365234,647.290039 474.828674,647.640747 
	C485.433624,655.666565 496.077606,663.640808 506.685669,671.662415 
	C509.167694,673.539246 511.034058,672.162231 512.911194,670.682800 
	C520.224976,664.918518 527.693970,659.334473 534.763794,653.284363 
	C538.434082,650.143433 542.994568,647.923401 546.462036,643.137573 
	C539.680664,642.230347 533.832214,643.585022 527.967041,643.806702 
	C512.698547,644.383789 497.448975,646.100708 481.270844,644.451721 
M447.463684,782.030334 
	C455.457520,783.599426 456.420624,782.743835 456.686157,774.674316 
	C457.014618,764.692688 457.469879,754.713989 457.986145,744.740051 
	C458.828430,728.467712 459.715118,712.197205 460.698059,695.932922 
	C460.923950,692.195435 458.963867,690.810486 455.748077,690.495239 
	C452.161621,690.143616 451.688416,692.851318 451.468048,695.375122 
	C450.976349,701.006897 450.696411,706.657104 450.331207,712.299927 
	C449.407379,726.574402 448.121704,740.838135 447.694611,755.127441 
	C447.432343,763.901855 445.611908,772.642029 447.463684,782.030334 
M565.595703,695.283936 
	C565.373962,693.822266 565.405273,692.274963 564.233704,691.146484 
	C556.475952,691.437500 556.298401,691.731445 556.240417,698.971985 
	C556.117798,714.284851 557.198059,729.567139 557.617554,744.861023 
	C557.917786,755.807617 557.826111,766.813660 558.860168,777.762817 
	C559.231079,781.690125 560.898987,782.758484 564.583557,782.713135 
	C568.592834,782.663879 568.734924,780.294250 568.641296,777.420532 
	C568.592590,775.923401 568.624146,774.423523 568.567200,772.926819 
	C567.592834,747.330688 566.610291,721.734924 565.595703,695.283936 
M454.314697,809.721375 
	C456.900299,805.527588 455.725922,801.049133 455.123322,796.688477 
	C454.779053,794.197449 452.939392,793.153748 450.360443,793.412170 
	C447.754608,793.673218 446.508759,795.098633 446.358215,797.622253 
	C446.249207,799.449585 446.217133,801.283630 446.043274,803.104492 
	C445.361908,810.239685 446.401917,811.217773 454.314697,809.721375 
M561.439514,799.097900 
	C561.413818,801.075623 561.410889,803.053955 561.357544,805.030945 
	C561.254089,808.866150 563.449951,810.536377 566.915955,810.281311 
	C570.476135,810.019226 572.218201,807.954285 571.399597,804.177734 
	C571.052185,802.574768 570.811218,800.935608 570.687195,799.300354 
	C570.483215,796.610596 570.507751,793.907471 566.876770,793.395386 
	C563.056824,792.856750 561.975769,795.163879 561.439514,799.097900 
z"/>
<path fill="#000000" opacity="1.000000" stroke="none" 
	d="
M590.803284,856.604614 
	C602.269226,856.353271 613.257019,856.079529 624.245911,855.863770 
	C632.812927,855.695618 635.421631,857.413147 637.158691,865.739929 
	C640.409790,881.323853 643.380615,896.969177 646.249268,912.629028 
	C648.433411,924.551880 650.691956,936.444519 654.176331,948.070862 
	C654.558044,949.344604 654.979919,950.615784 655.230347,951.917542 
	C655.884766,955.319519 657.230774,959.067383 652.710510,960.897095 
	C649.635864,962.141602 645.870117,959.509705 644.243408,954.889343 
	C639.703003,941.992737 637.179626,928.592224 634.692566,915.196411 
	C632.057129,901.001831 629.337524,886.816956 627.097656,872.558289 
	C626.417297,868.227173 624.693542,867.174744 620.627258,867.316162 
	C580.178040,868.723511 539.709412,869.148499 499.239746,869.104919 
	C473.089996,869.076782 446.939941,868.641296 420.791840,868.262268 
	C413.643677,868.158691 406.492615,867.728271 399.361267,867.199646 
	C395.360779,866.903198 393.985321,868.472900 393.236237,872.397827 
	C388.161682,898.987427 383.955536,925.809021 374.002594,951.206726 
	C373.037781,953.668823 371.821594,956.083557 370.371155,958.289551 
	C368.945374,960.458130 366.538544,960.928162 364.123260,960.323975 
	C361.278412,959.612122 361.513153,957.158325 361.691620,955.019714 
	C362.250488,948.323486 364.776154,942.106323 366.616486,935.727600 
	C373.483582,911.924988 378.510559,887.690125 383.545807,863.461914 
	C384.461884,859.053955 386.636780,856.893494 391.056580,856.216309 
	C396.556183,855.373718 402.034119,855.633362 407.500641,855.948242 
	C441.442657,857.903076 475.432770,858.349304 509.383606,857.414551 
	C536.372253,856.671570 563.347778,857.028809 590.803284,856.604614 
z"/>
<path fill="#000000" opacity="1.000000" stroke="none" 
	d="
M474.999512,987.335510 
	C439.000885,987.239075 403.741241,984.591858 368.931519,977.297241 
	C365.531403,976.584717 362.185394,975.500549 358.917084,974.307251 
	C356.134918,973.291565 354.439850,971.273071 355.505249,968.087219 
	C356.472168,965.195862 358.673553,964.538879 361.506042,965.146423 
	C382.994141,969.755615 404.864838,971.447693 426.679077,973.487305 
	C434.788239,974.245422 442.964020,974.573730 451.110901,974.597412 
	C488.258240,974.705322 525.415222,975.139587 562.550842,974.465942 
	C591.124878,973.947693 619.633606,971.590820 647.794128,966.186340 
	C650.383362,965.689453 653.084412,965.714905 655.737793,965.628967 
	C658.490051,965.539856 660.723572,966.464600 661.305237,969.481873 
	C661.928894,972.716553 660.090027,974.526611 657.305969,975.482422 
	C651.785889,977.377563 646.042236,978.334167 640.316711,979.375488 
	C596.192871,987.400818 551.598633,987.562195 506.983582,987.403625 
	C496.488953,987.366333 485.994202,987.357666 474.999512,987.335510 
z"/>
<path fill="#000000" opacity="1.000000" stroke="none" 
	d="
M561.665405,411.116455 
	C562.875244,381.723541 588.874756,359.982819 617.815613,362.362701 
	C647.993042,364.844238 669.101990,393.080414 668.228210,421.800720 
	C668.103638,425.893890 667.203735,429.770966 663.446411,432.260010 
	C657.141357,436.436829 649.752930,432.491394 648.720581,424.232208 
	C647.402161,413.684570 644.860535,403.704041 637.878296,395.234497 
	C628.727112,384.133972 616.214600,379.593170 603.190002,383.780975 
	C590.088440,387.993561 583.569275,397.965759 581.351440,411.091156 
	C580.826843,414.195770 580.616821,417.355286 580.306519,420.493958 
	C579.809875,425.516266 577.249146,428.643494 572.708496,428.939636 
	C568.175232,429.235352 564.655884,427.371582 562.781799,422.937683 
	C561.224182,419.252502 561.778076,415.396210 561.665405,411.116455 
z"/>
<path fill="#000000" opacity="1.000000" stroke="none" 
	d="
M409.094757,377.644531 
	C432.131989,386.650269 441.899017,408.301941 441.252869,428.937958 
	C441.038025,435.799408 438.310455,439.579376 433.620087,440.297729 
	C427.019867,441.308594 422.302856,437.221802 421.672272,430.070709 
	C421.132660,423.951477 420.618073,417.821716 417.916840,412.137939 
	C408.930878,393.230164 387.704315,388.716431 371.701477,402.326324 
	C362.393982,410.242035 357.425201,420.515106 355.323608,432.360901 
	C354.917755,434.648590 354.646149,436.990845 353.939758,439.188080 
	C352.458374,443.795929 349.044952,445.622833 344.311554,445.361450 
	C339.778015,445.111084 337.374847,442.619385 336.605988,438.314514 
	C333.567902,421.304199 342.040192,395.328674 361.969727,382.741913 
	C376.679199,373.451965 392.281067,371.602081 409.094757,377.644531 
z"/>
<path fill="#000000" opacity="1.000000" stroke="none" 
	d="
M484.789856,480.757874 
	C494.888550,477.419800 499.436676,471.262604 499.638214,461.044434 
	C499.690765,458.381348 499.544861,455.711395 499.672272,453.053345 
	C499.905182,448.193512 498.784302,444.472900 493.711182,442.248840 
	C489.391449,440.355103 486.590637,436.566223 486.802460,431.565765 
	C487.006866,426.740936 490.232361,423.717010 494.315186,421.755798 
	C499.987946,419.030792 505.876373,417.894745 512.218384,419.482452 
	C518.912598,421.158264 522.533997,423.808075 523.052063,428.908966 
	C523.624573,434.546143 521.231140,439.502899 516.287231,441.807861 
	C511.259735,444.151825 511.534515,447.048492 512.811523,451.272003 
	C514.105164,455.550659 514.550964,460.087372 515.867981,464.356903 
	C519.884705,477.378052 535.664734,482.297882 546.812683,474.419647 
	C551.415222,471.167023 551.924255,466.451385 552.514771,461.725311 
	C552.976624,458.028900 554.375488,455.852234 558.322266,455.657623 
	C562.543640,455.449524 564.523560,457.959961 565.074951,461.545319 
	C565.970398,467.367371 564.559387,472.835815 561.037170,477.571686 
	C549.215942,493.466248 528.507507,495.954712 513.087158,483.411133 
	C511.691467,482.275787 510.335297,481.091858 508.551025,479.584320 
	C503.210388,487.095581 496.396790,492.222626 487.457397,493.832489 
	C472.255432,496.570160 456.022308,489.077332 454.275574,473.257660 
	C454.070648,471.401764 454.260712,469.639771 454.443176,467.814362 
	C454.851562,463.728241 457.243103,461.799225 461.048309,461.829742 
	C464.737518,461.859314 465.886414,464.454102 466.423767,467.798340 
	C468.191345,478.799561 474.459625,483.252563 484.789856,480.757874 
z"/>
<path fill="#000000" opacity="1.000000" stroke="none" 
	d="
M589.812256,325.793518 
	C585.570618,326.896332 582.980591,325.164948 582.251892,321.645996 
	C581.531799,318.168549 583.518250,315.530182 586.867310,314.338867 
	C595.330383,311.328339 603.880005,312.422638 612.362183,314.235413 
	C616.742493,315.171539 621.028076,316.570129 624.922119,318.879425 
	C628.725891,321.135193 630.644897,325.522522 628.852173,328.532654 
	C626.361145,332.715454 622.706177,331.744202 619.282288,329.904785 
	C610.089111,324.965790 600.308594,324.384521 589.812256,325.793518 
z"/>
<path fill="#000000" opacity="1.000000" stroke="none" 
	d="
M367.735229,341.464630 
	C364.804443,336.977356 366.625610,333.700470 369.934601,331.217224 
	C379.272400,324.209656 389.909760,320.859680 401.568665,320.711212 
	C403.627380,320.684998 405.549591,321.219421 407.214264,322.399323 
	C409.476685,324.002899 410.183563,326.422638 409.821014,328.993896 
	C409.501556,331.259735 407.701599,332.230530 405.534271,332.516907 
	C403.562073,332.777466 401.598755,333.171478 399.618439,333.292603 
	C391.650574,333.779968 384.251709,335.692688 377.853790,340.841034 
	C374.932068,343.192139 371.588379,344.912628 367.735229,341.464630 
z"/>
</svg>